<?xml version="1.0" encoding="UTF-8" standalone="no"?><!DOCTYPE svg PUBLIC "-//W3C//DTD SVG 1.1//EN" "http://www.w3.org/Graphics/SVG/1.1/DTD/svg11.dtd"><svg width="100%" height="100%" viewBox="0 0 3334 3334" version="1.1" xmlns="http://www.w3.org/2000/svg" xmlns:xlink="http://www.w3.org/1999/xlink" xml:space="preserve" xmlns:serif="http://www.serif.com/" style="fill-rule:evenodd;clip-rule:evenodd;stroke-linejoin:round;stroke-miterlimit:2;"><g id="duck"><path id="body" d="M2835.27,2749.95c119.932,-143.207 82.509,-305.654 82.509,-471.015c-0,-519.92 -496.94,-942.029 -1251.11,-942.029c-754.17,0 -1239.28,422.109 -1239.28,942.029c0,165.361 -37.422,327.808 82.509,471.015c0,-0 269.356,298.728 1156.77,298.728c831.217,0 1168.6,-298.728 1168.6,-298.728Z" style="fill:#ffc906;"/><path id="head" d="M1666.67,204.104c307.098,-0 456.736,119.094 657.62,304.643c139.138,128.516 297.718,401.842 297.718,590.062c0,443.197 -394.924,442.177 -955.338,442.177c-533.796,0 -955.285,9.895 -955.285,-433.302c-0,-188.22 167.268,-473.849 309.495,-598.937c200.884,-176.676 338.691,-304.643 645.79,-304.643Z" style="fill:#ffc906;"/><g id="mirror"><path id="shadow_head" d="M711.388,1096.47l-0.06,2.341c0,217.477 95.092,327.992 258.123,384.136c-79.222,38.044 -131.868,67.792 -195.543,118.076c152.815,-1.419 332.065,-34.018 399.019,-91.718c18.298,-15.769 -192.435,-100.087 -291.377,-196.14c-72.92,-70.791 -131.093,-148.375 -170.162,-216.695Z" style="fill:#f5b800;"/><path id="wing" d="M517.338,2229.61c-141.983,146.911 -44.119,169.47 -123.711,-18.649c-49.722,-117.519 -115.532,-256.334 -13.872,-425.166c101.661,-168.831 255.17,-198.042 382.263,-186.636c57.786,5.186 60.413,55.637 74.356,100.616l-319.036,529.835Z" style="fill:#ffc906;"/><path id="shadow_body" d="M599.069,2817.74c-68.872,-39.347 -101.002,-67.796 -101.002,-67.796c-119.932,-143.207 -82.509,-305.654 -82.509,-471.015c-0,-2.755 0.014,-5.508 0.043,-8.329c-5.183,-16.845 -12.256,-36.673 -21.974,-59.642c-7.066,-16.7 -14.456,-33.829 -21.637,-51.395c101.939,23.418 182.757,-29.607 182.757,-29.607c-0,0 -76.68,258.671 -51.197,409.096c18.28,107.912 52.404,198.216 95.519,278.688Z" style="fill:#f5b800;"/><path d="M1712.67,1002.01c0,-0 -169.824,-3.771 -246.248,8.74c-98.873,16.185 -120.128,147.681 -205.53,162.107c-51.388,8.68 -127.962,-14.465 -167.179,-15.003c-47.187,-0.646 -61.894,28.474 -62.331,70.04c-0.739,70.379 198.683,99.304 289.264,140.773c94.267,43.156 115.699,58.326 177.204,69.918c64.022,12.068 206.928,2.485 206.928,2.485l7.892,-439.06Z" style="fill:#f36d21;"/><path d="M1548.55,1042.38c-9.69,1.836 -15.824,12.473 -13.689,23.739c2.134,11.267 11.734,18.923 21.424,17.087c9.69,-1.835 15.824,-12.473 13.689,-23.739c-2.135,-11.267 -11.734,-18.923 -21.424,-17.087Z" style="fill:#ac3413;"/></g><g id="mirror1" serif:id="mirror"><path id="shadow_head1" serif:id="shadow_head" d="M2621.95,1096.47l0.06,2.341c0,217.477 -95.092,327.992 -258.122,384.136c79.221,38.044 131.867,67.792 195.543,118.076c-152.816,-1.419 -332.066,-34.018 -399.019,-91.718c-18.298,-15.769 192.434,-100.087 291.376,-196.14c72.92,-70.791 131.094,-148.375 170.162,-216.695Z" style="fill:#f5b800;"/><path id="wing1" serif:id="wing" d="M2816,2229.61c141.983,146.911 44.118,169.47 123.711,-18.649c49.721,-117.519 115.532,-256.334 13.871,-425.166c-101.66,-168.831 -255.169,-198.042 -382.263,-186.636c-57.786,5.186 -60.412,55.637 -74.356,100.616l319.037,529.835Z" style="fill:#ffc906;"/><path id="shadow_body1" serif:id="shadow_body" d="M2734.26,2817.74c68.872,-39.347 101.002,-67.796 101.002,-67.796c119.932,-143.207 82.509,-305.654 82.509,-471.015c-0,-2.755 -0.014,-5.508 -0.044,-8.329c5.184,-16.845 12.256,-36.673 21.975,-59.642c7.065,-16.7 14.456,-33.829 21.636,-51.395c-101.938,23.418 -182.756,-29.607 -182.756,-29.607c-0,0 76.679,258.671 51.197,409.096c-18.281,107.912 -52.405,198.216 -95.519,278.688Z" style="fill:#f5b800;"/><path d="M1620.66,1002.01c-0,-0 169.824,-3.771 246.248,8.74c98.873,16.185 120.128,147.681 205.531,162.107c51.387,8.68 127.961,-14.465 167.178,-15.003c47.187,-0.646 61.894,28.474 62.331,70.04c0.74,70.379 -198.682,99.304 -289.264,140.773c-94.266,43.156 -115.698,58.326 -177.204,69.918c-64.022,12.068 -206.928,2.485 -206.928,2.485l-7.892,-439.06Z" style="fill:#f36d21;"/><path d="M1784.79,1042.38c9.69,1.836 15.824,12.473 13.689,23.739c-2.134,11.267 -11.734,18.923 -21.424,17.087c-9.689,-1.835 -15.823,-12.473 -13.689,-23.739c2.135,-11.267 11.735,-18.923 21.424,-17.087Z" style="fill:#ac3413;"/></g><path id="mouth_inside" d="M1666.67,1155.94c98.515,-0 178.371,13.376 283.576,37.262c129.16,29.324 236.752,21.306 236.752,36.638c0,28.671 -349.914,98.331 -520.328,98.129c-169.763,-0.201 -502.157,-70.669 -502.157,-99.341c0,-15.077 99.496,-0.533 209.056,-28.815c98.624,-25.459 194.586,-43.873 293.101,-43.873Z" style="fill:#ac3413;"/></g><g id="eyes"><g id="eyes-default-2"><g id="left"><circle id="left1" serif:id="left" cx="1224.81" cy="918.029" r="149.364"/><circle id="left_pupil" cx="1199.13" cy="878.05" r="67.978" style="fill:#fff;"/><circle id="left_glow" cx="1301.45" cy="837.432" r="17.007" style="fill:#fff;"/></g><g id="right"><circle id="right1" serif:id="right" cx="2108.55" cy="918.029" r="149.364"/><circle id="pupil" cx="2082.88" cy="878.05" r="67.978" style="fill:#fff;"/><circle id="glow" cx="2185.2" cy="837.432" r="17.007" style="fill:#fff;"/></g></g></g></svg>
